<svg aria-hidden="true" style="position: absolute; width: 0; height: 0; overflow: hidden;" version="1.1" xmlns="http://www.w3.org/2000/svg" xmlns:xlink="http://www.w3.org/1999/xlink">
<defs>
<symbol id="tail" viewBox="0 0 26 32">
<path fill="#d9e4ff" style="fill: var(--color1, #d9e4ff)" d="M0.172 30.758c7.924 1.219 15.746-3.144 18.286-5.938-2.618-6.242 13.543-21.404 2.877-21.404-2.466 0-4.573-6.461-13.544-1.61-0.032 1.961 0 8.749 0 9.904 0 16-9.143 18.129-7.619 19.048z"></path>
</symbol>
<symbol id="check-icon" viewBox="0 0 32 32">
<path fill="#0038ff" style="fill: var(--color2, #0038ff)" d="M30.118 16c0 1.205-1.48 2.198-1.777 3.308-0.306 1.148 0.468 2.748-0.113 3.753-0.591 1.021-2.367 1.144-3.195 1.972s-0.95 2.605-1.972 3.195c-1.005 0.581-2.605-0.193-3.753 0.113-1.111 0.296-2.104 1.777-3.308 1.777s-2.198-1.48-3.308-1.777c-1.148-0.306-2.748 0.468-3.753-0.113-1.021-0.591-1.144-2.367-1.972-3.195s-2.605-0.95-3.195-1.972c-0.581-1.005 0.193-2.605-0.113-3.753-0.296-1.111-1.776-2.104-1.776-3.308s1.48-2.198 1.776-3.308c0.306-1.148-0.468-2.748 0.113-3.753 0.591-1.021 2.367-1.144 3.195-1.972s0.951-2.605 1.972-3.195c1.005-0.581 2.605 0.193 3.753-0.113 1.111-0.296 2.104-1.776 3.308-1.776s2.198 1.48 3.308 1.776c1.148 0.306 2.748-0.468 3.753 0.113 1.021 0.591 1.144 2.367 1.972 3.195s2.605 0.951 3.195 1.972c0.581 1.005-0.193 2.605 0.113 3.753 0.296 1.111 1.777 2.104 1.777 3.308z"></path>
<path fill="#fffcee" style="fill: var(--color3, #fffcee)" d="M20.080 11.793l-5.374 5.374-2.786-2.784c-0.605-0.605-1.586-0.605-2.191 0s-0.605 1.586 0 2.191l3.908 3.908c0.588 0.588 1.544 0.588 2.132 0l6.499-6.499c0.605-0.605 0.605-1.586 0-2.191s-1.584-0.605-2.188 0z"></path>
</symbol>
<symbol id="left-arrow" viewBox="0 0 19 32">
<path fill="#fff" style="fill: var(--color4, #fff)" d="M0.941 16c0-0.361 0.138-0.723 0.414-0.998l14.118-14.118c0.552-0.552 1.445-0.552 1.996 0s0.552 1.445 0 1.996l-13.12 13.12 13.12 13.12c0.552 0.552 0.552 1.445 0 1.996s-1.445 0.552-1.996 0l-14.118-14.118c-0.276-0.276-0.414-0.637-0.414-0.998z"></path>
</symbol>
<symbol id="t-space-logo" viewBox="0 0 31 32">
<path fill="#0038ff" style="fill: var(--color2, #0038ff)" d="M15.568 0.432c8.598 0 15.568 6.97 15.568 15.568s-6.97 15.568-15.568 15.568c-8.598 0-15.568-6.97-15.568-15.568s6.97-15.568 15.568-15.568z"></path>
<path fill="#fff" style="fill: var(--color4, #fff)" d="M8.043 8.51h11.008v2.435h-8.572v4.237h-2.435v-6.673z"></path>
<path fill="#fff" style="fill: var(--color4, #fff)" d="M18.953 23.512h-6.722v-10.764h8.426v-4.238h2.435v6.673h-8.426v5.894h1.851v-4.286h2.435v6.722z"></path>
</symbol>
<symbol id="microphone" viewBox="0 0 23 32">
<path fill="#a4a4ab" style="fill: var(--color5, #a4a4ab)" d="M11.429 22.429c-3.545 0-6.429-2.884-6.429-6.429v-8.571c0-3.545 2.884-6.429 6.429-6.429s6.429 2.884 6.429 6.429v8.571c0 3.545-2.884 6.429-6.429 6.429zM11.429 3.143c-2.363 0-4.286 1.923-4.286 4.286v8.571c0 2.363 1.923 4.286 4.286 4.286s4.286-1.923 4.286-4.286v-8.571c0-2.363-1.923-4.286-4.286-4.286zM21.071 13.857c-0.592 0-1.071 0.48-1.071 1.071v1.071c0 4.726-3.845 8.571-8.571 8.571s-8.571-3.845-8.571-8.571v-1.071c0-0.592-0.48-1.071-1.071-1.071s-1.071 0.48-1.071 1.071v1.071c0 5.547 4.236 10.121 9.643 10.66v2.197h-2.143c-0.592 0-1.071 0.48-1.071 1.071s0.48 1.071 1.071 1.071h6.429c0.592 0 1.071-0.48 1.071-1.071s-0.48-1.071-1.071-1.071h-2.143v-2.197c5.407-0.539 9.643-5.114 9.643-10.66v-1.071c0-0.592-0.48-1.071-1.071-1.071z"></path>
</symbol>
<symbol id="pin" viewBox="0 0 32 32">
<path fill="#a4a4ab" style="fill: var(--color5, #a4a4ab)" d="M26.39 5.61c-2.883-2.883-7.589-2.897-10.472-0.014l-11.732 11.732c-2.106 2.105-2.099 5.538 0.007 7.644s5.538 2.112 7.644 0.007l10.247-10.247c1.327-1.327 1.327-3.487 0-4.815s-3.488-1.328-4.815 0l-8.871 8.871c-0.443 0.443-0.443 1.162 0 1.605s1.162 0.443 1.605 0l8.871-8.871c0.442-0.443 1.162-0.443 1.605 0s0.443 1.162 0 1.605l-10.247 10.247c-1.22 1.22-3.213 1.214-4.434-0.007s-1.227-3.213-0.007-4.434l11.732-11.732c1.998-1.998 5.264-1.985 7.262 0.014s2.012 5.264 0.014 7.262l-10.98 10.98c-0.443 0.443-0.443 1.162 0 1.605s1.162 0.443 1.605 0l10.98-10.98c2.884-2.884 2.87-7.589-0.014-10.472z"></path>
</symbol>
<symbol id="sticker" viewBox="0 0 32 32">
<path fill="#a4a4ab" style="fill: var(--color5, #a4a4ab)" d="M16.51 0h-0.51c-8.822 0-16 7.178-16 16s7.178 16 16 16c8.822 0 16-7.178 16-16v-0.51l-15.49-15.49zM27.873 14.845c-3.519-0.11-6.179-1.044-7.926-2.792s-2.681-4.407-2.792-7.926l10.718 10.718zM16 29.538c-7.465 0-13.538-6.073-13.538-13.538 0-7.026 5.38-12.818 12.236-13.475-0.158 4.992 1.019 8.779 3.509 11.269 2.343 2.343 5.832 3.524 10.395 3.524 0.287 0 0.579-0.006 0.874-0.015-0.657 6.856-6.449 12.236-13.475 12.236z"></path>
</symbol>
</defs>
</svg>
